<?xml version="1.0" encoding="UTF-8" standalone="no"?>
<svg
   width="128"
   height="128"
   viewBox="0 0 128 128"
   version="1.1"
   id="svg3"
   sodipodi:docname="app.svg"
   inkscape:version="1.4.2 (ebf0e940d0, 2025-05-08)"
   xmlns:inkscape="http://www.inkscape.org/namespaces/inkscape"
   xmlns:sodipodi="http://sodipodi.sourceforge.net/DTD/sodipodi-0.dtd"
   xmlns="http://www.w3.org/2000/svg"
   xmlns:svg="http://www.w3.org/2000/svg">
  <defs
     id="defs2">
    <linearGradient
       id="gradient-bg"
       x1="-1.42109e-14"
       y1="0"
       x2="128"
       y2="128"
       gradientUnits="userSpaceOnUse">
      <stop
         offset="0%"
         style="stop-color:#bb9cd9;stop-opacity:1.0"
         id="stop1" />
      <stop
         offset="100%"
         style="stop-color:#7b5c99;stop-opacity:1.0"
         id="stop2" />
    </linearGradient>
  </defs>
  <rect
     id="background"
     x="9.5"
     y="9.5"
     width="109"
     height="109"
     rx="24"
     ry="24"
     fill="url(#gradient-bg)" />
  <g
     id="content">
    <path
       id="element-0-1"
       style="mix-blend-mode:normal;fill:#16103f;fill-opacity:0.32;stroke:#ffffff;stroke-width:0"
       d="M 30.183956,9.7543136 64.000003,9.5000004 V 64.000003 H 9.5000004 c 0,0 0,-20.817981 0,-30.277779 C 9.609658,13.839755 30.183956,9.7543136 30.183956,9.7543136 Z"
       sodipodi:nodetypes="cccccc" />
    <path
       id="element-0-1-6"
       style="mix-blend-mode:normal;fill:#16103f;fill-opacity:0.32;stroke:#ffffff;stroke-width:0"
       d="M 97.816049,118.24569 64.000003,118.5 V 64.000003 H 118.5 c 0,0 0,20.81798 0,30.277779 -0.10965,19.882468 -20.683951,23.967908 -20.683951,23.967908 z"
       sodipodi:nodetypes="cccccc" />
    <g
       id="group-1"
       style="mix-blend-mode:normal;">
      <rect
         id="element-1-0"
         x="27.5"
         y="35.5"
         width="18"
         height="5"
         rx="0"
         ry="0"
         fill="#ffffff"
         fill-opacity="0.800"
         stroke="#ffffff"
         stroke-opacity="1.000"
         stroke-width="0" />
    </g>
    <g
       id="group-2"
       style="mix-blend-mode:normal;">
      <rect
         id="element-2-0"
         x="80.5"
         y="35.5"
         width="18"
         height="5"
         rx="0"
         ry="0"
         fill="#ffffff"
         fill-opacity="0.800"
         stroke="#ffffff"
         stroke-opacity="1.000"
         stroke-width="0"
         transform="rotate(45 89.5 38)" />
      <rect
         id="element-2-1"
         x="80.5"
         y="35.5"
         width="18"
         height="5"
         rx="0"
         ry="0"
         fill="#ffffff"
         fill-opacity="0.800"
         stroke="#ffffff"
         stroke-opacity="1.000"
         stroke-width="0"
         transform="rotate(135 89.5 38)" />
    </g>
    <g
       id="group-3"
       style="mix-blend-mode:normal;">
      <rect
         id="element-3-0"
         x="27.5"
         y="91.5"
         width="18"
         height="5"
         rx="0"
         ry="0"
         fill="#ffffff"
         fill-opacity="0.800"
         stroke="#ffffff"
         stroke-opacity="1.000"
         stroke-width="0" />
      <rect
         id="element-3-1"
         x="27.5"
         y="81.5"
         width="18"
         height="5"
         rx="0"
         ry="0"
         fill="#ffffff"
         fill-opacity="0.800"
         stroke="#ffffff"
         stroke-opacity="1.000"
         stroke-width="0" />
    </g>
    <g
       id="group-4"
       style="mix-blend-mode:normal;">
      <rect
         id="element-4-0"
         x="80.5"
         y="87.5"
         width="18"
         height="5"
         rx="0"
         ry="0"
         fill="#ffffff"
         fill-opacity="0.800"
         stroke="#ffffff"
         stroke-opacity="1.000"
         stroke-width="0"
         transform="rotate(90 89.5 90)" />
      <rect
         id="element-4-1"
         x="80.5"
         y="87.5"
         width="18"
         height="5"
         rx="0"
         ry="0"
         fill="#ffffff"
         fill-opacity="0.800"
         stroke="#ffffff"
         stroke-opacity="1.000"
         stroke-width="0" />
    </g>
  </g>
  <g
     id="overlay-effects"
     transform="translate(9.5,9.5)">
    <svg
       width="109"
       height="109"
       viewBox="0 0 109 109"
       fill="none"
       version="1.1"
       id="svg2"
       sodipodi:docname="effects.svg"
       inkscape:version="1.4.2 (ebf0e940d0, 2025-05-08)">
      <defs
         id="defs3" />
      <sodipodi:namedview
         id="namedview2"
         pagecolor="#ffffff"
         bordercolor="#111111"
         borderopacity="1"
         inkscape:showpageshadow="0"
         inkscape:pageopacity="0"
         inkscape:pagecheckerboard="1"
         inkscape:deskcolor="#d1d1d1"
         inkscape:zoom="5.6568544"
         inkscape:cx="29.079766"
         inkscape:cy="42.868348"
         inkscape:window-width="2560"
         inkscape:window-height="1298"
         inkscape:window-x="0"
         inkscape:window-y="0"
         inkscape:window-maximized="1"
         inkscape:current-layer="content" />
      <path
         id="rect1"
         style="fill:#ffffff;stroke-linecap:square;fill-opacity:0.39659169"
         d="M 24 0 C 10.704 0 1.4854784e-16 10.704 0 24 L 0 28 C 1.4854784e-16 14.704 10.704 4 24 4 L 85 4 C 98.296 4 109 14.704 109 28 L 109 24 C 109 10.704 98.296 1.4854784e-16 85 0 L 24 0 z " />
      <path
         id="rect1-5"
         style="fill:#000000;stroke-linecap:square;fill-opacity:0.19670402"
         d="M 24,109 C 10.704,109 0,98.296 0,85 v -4 c 0,13.296 10.704,24 24,24 h 61 c 13.296,0 24,-10.704 24,-24 v 4 c 0,13.296 -10.704,24 -24,24 z" />
    </svg>
  </g>
</svg>
