<svg xmlns="http://www.w3.org/2000/svg" xmlns:svg="http://www.w3.org/2000/svg" id="svg12" width="128" height="128" fill="none" version="1.1" viewBox="0 0 128 128"><rect id="rect1" width="128" height="128" fill="url(#paint0_linear_723_2)" rx="24"/><g id="g1" filter="url(#filter0_i_723_2)"><path id="path1" fill="#fff" fill-opacity=".25" d="M0 64H64V128H37.92C24.9314 128 18.4371 128 13.4415 125.553C8.65833 123.209 4.79057 119.342 2.44734 114.559C0 109.563 0 103.069 0 90.08V64Z"/></g><path id="path2" fill="#fff" fill-opacity=".25" d="M64 0H90.08C103.069 0 109.563 0 114.559 2.44734C119.342 4.79057 123.209 8.65833 125.553 13.4415C128 18.4371 128 24.9314 128 37.92V64H64V0Z"/><path id="path3" fill="#FAFAFA" d="M98.9873 43L94 38.0064L89.0127 43L86 39.9631L90.9669 34.9694L86.0204 30.0166L89.0534 27L94 31.9529L98.9466 27L101.98 30.0166L97.0127 34.9694L102 39.9631L98.9873 43Z"/><path id="path4" fill="#FAFAFA" d="M92.1511 104V97.8489H86V94.1156H92.1511V88H95.8844V94.1156H102V97.8489H95.8844V104H92.1511Z"/><path id="path5" fill="#FAFAFA" d="M26 93.8V89.6H42V93.8H26ZM26 101.6V97.4H42V101.6H26Z"/><path id="path6" fill="#fff" d="M26 37V33H42V37H26Z"/><defs id="defs12"><filter id="filter0_i_723_2" width="64" height="64" x="0" y="64" color-interpolation-filters="sRGB" filterUnits="userSpaceOnUse"><feFlood id="feFlood6" flood-opacity="0" result="BackgroundImageFix"/><feBlend id="feBlend6" in="SourceGraphic" in2="BackgroundImageFix" mode="normal" result="shape"/><feColorMatrix id="feColorMatrix6" in="SourceAlpha" result="hardAlpha" type="matrix" values="0 0 0 0 0 0 0 0 0 0 0 0 0 0 0 0 0 0 127 0"/><feOffset id="feOffset6" dy="-4"/><feComposite id="feComposite6" in2="hardAlpha" k2="-1" k3="1" operator="arithmetic"/><feColorMatrix id="feColorMatrix7" type="matrix" values="0 0 0 0 0.176471 0 0 0 0 0.176471 0 0 0 0 0.176471 0 0 0 0.1 0"/><feBlend id="feBlend7" in2="shape" mode="normal" result="effect1_innerShadow_723_2"/></filter><filter id="filter1_ii_723_2" width="128" height="129" x="0" y="0" color-interpolation-filters="sRGB" filterUnits="userSpaceOnUse"><feFlood id="feFlood7" flood-opacity="0" result="BackgroundImageFix"/><feBlend id="feBlend8" in="SourceGraphic" in2="BackgroundImageFix" mode="normal" result="shape"/><feColorMatrix id="feColorMatrix8" in="SourceAlpha" result="hardAlpha" type="matrix" values="0 0 0 0 0 0 0 0 0 0 0 0 0 0 0 0 0 0 127 0"/><feOffset id="feOffset8" dy="-4"/><feComposite id="feComposite8" in2="hardAlpha" k2="-1" k3="1" operator="arithmetic"/><feColorMatrix id="feColorMatrix9" type="matrix" values="0 0 0 0 0 0 0 0 0 0 0 0 0 0 0 0 0 0 0.25 0"/><feBlend id="feBlend9" in2="shape" mode="normal" result="effect1_innerShadow_723_2"/><feColorMatrix id="feColorMatrix10" in="SourceAlpha" result="hardAlpha" type="matrix" values="0 0 0 0 0 0 0 0 0 0 0 0 0 0 0 0 0 0 127 0"/><feMorphology id="feMorphology10" in="SourceAlpha" operator="erode" radius="1" result="effect2_innerShadow_723_2"/><feOffset id="feOffset10" dy="2"/><feComposite id="feComposite10" in2="hardAlpha" k2="-1" k3="1" operator="arithmetic"/><feColorMatrix id="feColorMatrix11" type="matrix" values="0 0 0 0 1 0 0 0 0 1 0 0 0 0 1 0 0 0 0.25 0"/><feBlend id="feBlend11" in2="effect1_innerShadow_723_2" mode="normal" result="effect2_innerShadow_723_2"/></filter><linearGradient id="paint0_linear_723_2" x1="25" x2="108" y1="0" y2="128" gradientUnits="userSpaceOnUse"><stop id="stop11" stop-color="#8C56BF"/><stop id="stop12" offset="1" stop-color="#6C488D"/></linearGradient></defs></svg>