<svg width="128" height="128" viewBox="0 0 128 128" fill="none" xmlns="http://www.w3.org/2000/svg">
<rect x="12" y="12" width="104" height="104" rx="24" fill="url(#paint0_linear_723_2)"/>
<g filter="url(#filter0_i_723_2)">
<path d="M12 63.5472H64.4771V115H49.92C36.9314 115 30.4371 115 25.4415 112.553C20.6583 110.21 16.7906 106.342 14.4473 101.559C12 96.563 12 90.0687 12 77.0801V63.5472Z" fill="white" fill-opacity="0.25"/>
</g>
<path d="M64.4771 14H78.0801C91.0687 14 97.5629 14 102.559 16.4473C107.342 18.7906 111.209 22.6583 113.553 27.4415C116 32.4371 116 38.9314 116 51.92V66.4057H64.4771V14Z" fill="white" fill-opacity="0.25"/>
<path d="M95.9873 46L91 41.0064L86.0127 46L83 42.9631L87.9669 37.9694L83.0204 33.0166L86.0534 30L91 34.9529L95.9466 30L98.9796 33.0166L94.0127 37.9694L99 42.9631L95.9873 46Z" fill="#FAFAFA"/>
<path d="M89.1511 99V92.8489H83V89.1156H89.1511V83H92.8844V89.1156H99V92.8489H92.8844V99H89.1511Z" fill="#FAFAFA"/>
<path d="M29 88.8V84.6H45V88.8H29ZM29 96.6V92.4H45V96.6H29Z" fill="#FAFAFA"/>
<path d="M29 42V38H45V42H29Z" fill="white"/>
<defs>
<filter id="filter0_i_723_2" x="12" y="63.5472" width="52.4771" height="51.4528" filterUnits="userSpaceOnUse" color-interpolation-filters="sRGB">
<feFlood flood-opacity="0" result="BackgroundImageFix"/>
<feBlend mode="normal" in="SourceGraphic" in2="BackgroundImageFix" result="shape"/>
<feColorMatrix in="SourceAlpha" type="matrix" values="0 0 0 0 0 0 0 0 0 0 0 0 0 0 0 0 0 0 127 0" result="hardAlpha"/>
<feOffset dy="-4"/>
<feComposite in2="hardAlpha" operator="arithmetic" k2="-1" k3="1"/>
<feColorMatrix type="matrix" values="0 0 0 0 0.176471 0 0 0 0 0.176471 0 0 0 0 0.176471 0 0 0 0.1 0"/>
<feBlend mode="normal" in2="shape" result="effect1_innerShadow_723_2"/>
</filter>
<linearGradient id="paint0_linear_723_2" x1="32.3125" y1="12" x2="99.75" y2="116" gradientUnits="userSpaceOnUse">
<stop stop-color="#8C56BF"/>
<stop offset="1" stop-color="#6C488D"/>
</linearGradient>
</defs>
</svg>
