<svg xmlns="http://www.w3.org/2000/svg" xmlns:svg="http://www.w3.org/2000/svg" id="svg9" version="1.1" viewBox="0 0 16 16"><defs id="defs3"><style id="current-color-scheme" type="text/css">.ColorScheme-Text{color:#363636}</style></defs><path id="path5" fill="currentColor" d="M 6.3561957,1.9852118 A 0.93943995,1.002565 0 0 0 5.7085636,2.2612806 L 1.3585461,6.6842551 0.77695942,7.2735941 a 0.93943995,1.002565 0 0 0 0,1.4527719 L 1.3585461,9.315705 5.7085636,13.73868 a 0.93943995,1.002565 0 0 0 0.6476321,0.276068 h 8.2192773 a 0.93943995,1.002565 0 0 0 0.939346,-1.002464 V 2.9876364 A 0.93943995,1.002565 0 0 0 14.575473,1.9851718 H 6.3561957 Z m 0,1.0024648 H 14.575473 V 13.012324 H 6.3561957 L 2.0061782,8.5912538 1.4245915,7.99996 2.0061782,7.4086662 6.3561957,2.9875964 Z" class="ColorScheme-Text" style="fill:#000;stroke:#000;stroke-width:.970393;stroke-opacity:1;fill-opacity:1"/><path style="color:#000;fill:#241f31;stroke-linecap:round;stroke-linejoin:round;-inkscape-stroke:none;stroke:#000;stroke-opacity:1" id="path863" d="m 12.499675,5 a -0.5,0.5 0 0 1 0.353516,0.1464844 -0.5,0.5 0 0 1 0,0.7070312 L 7.8531908,10.853516 a -0.5,0.5 0 0 1 -0.7070312,0 -0.5,0.5 0 0 1 0,-0.707032 L 12.14616,5.1464844 A -0.5,0.5 0 0 1 12.499675,5 Z"/><path style="color:#000;fill:#241f31;stroke-linecap:round;stroke-linejoin:round;-inkscape-stroke:none;stroke:#000;stroke-opacity:1" id="path865" d="m 7.8531908,5.1464844 5.0000002,4.9999996 a -0.5,0.5 0 0 1 0,0.707032 -0.5,0.5 0 0 1 -0.707031,0 L 7.1461596,5.8535156 a -0.5,0.5 0 0 1 0,-0.7070312 -0.5,0.5 0 0 1 0.7070312,0 z"/></svg>