<?xml version="1.0" encoding="UTF-8"?>
<svg height="128px" viewBox="0 0 128 128" width="128px" xmlns="http://www.w3.org/2000/svg" xmlns:xlink="http://www.w3.org/1999/xlink">
    <clipPath id="a">
        <rect height="128" width="128"/>
    </clipPath>
    <clipPath id="b">
        <rect height="128" width="128"/>
    </clipPath>
    <filter id="c" height="100%" width="100%" x="0%" y="0%">
        <feColorMatrix in="SourceGraphic" type="matrix" values="0 0 0 0 1 0 0 0 0 1 0 0 0 0 1 0 0 0 1 0"/>
    </filter>
    <mask id="d">
        <g clip-path="url(#b)" filter="url(#c)">
            <g clip-path="url(#a)">
                <path d="m 20 16 h 88 c 4.417969 0 8 3.582031 8 8 v 84 c 0 4.417969 -3.582031 8 -8 8 h -88 c -4.417969 0 -8 -3.582031 -8 -8 v -84 c 0 -4.417969 3.582031 -8 8 -8 z m 0 0" fill="#cdcdd4"/>
                <path d="m 20 12 h 88 c 4.417969 0 8 3.582031 8 8 v 84 c 0 4.417969 -3.582031 8 -8 8 h -88 c -4.417969 0 -8 -3.582031 -8 -8 v -84 c 0 -4.417969 3.582031 -8 8 -8 z m 0 0" fill="#f0f0f2"/>
                <path d="m 58 44 c 0 8.835938 -7.164062 16 -16 16 s -16 -7.164062 -16 -16 s 7.164062 -16 16 -16 s 16 7.164062 16 16 z m 0 0" fill="#cdcdd4"/>
                <path d="m 58 40 c 0 8.835938 -7.164062 16 -16 16 s -16 -7.164062 -16 -16 s 7.164062 -16 16 -16 s 16 7.164062 16 16 z m 0 0" fill="#e3e3e7"/>
                <path d="m 58.070312 82 c 0 8.835938 -7.164062 16 -16 16 c -8.835937 0 -16 -7.164062 -16 -16 s 7.164063 -16 16 -16 c 8.835938 0 16 7.164062 16 16 z m 0 0" fill="#cdcdd4"/>
                <path d="m 58.070312 78 c 0 8.835938 -7.164062 16 -16 16 c -8.835937 0 -16 -7.164062 -16 -16 s 7.164063 -16 16 -16 c 8.835938 0 16 7.164062 16 16 z m 0 0" fill="#e3e3e7"/>
                <path d="m 72 28 h 24 c 3.3125 0 6 2.6875 6 6 v 58 c 0 3.3125 -2.6875 6 -6 6 h -24 c -3.3125 0 -6 -2.6875 -6 -6 v -58 c 0 -3.3125 2.6875 -6 6 -6 z m 0 0" fill="#723ea4"/>
                <path d="m 72 24 h 24 c 3.3125 0 6 2.6875 6 6 v 58 c 0 3.3125 -2.6875 6 -6 6 h -24 c -3.3125 0 -6 -2.6875 -6 -6 v -58 c 0 -3.3125 2.6875 -6 6 -6 z m 0 0" fill="#8c56bf"/>
                <path d="m 50 33.671875 l -6.332031 6.34375 l 6.332031 6.3125 l -1.648438 1.671875 l -6.359374 -6.34375 l -6.359376 6.34375 l -1.632812 -1.671875 l 6.316406 -6.3125 l -6.316406 -6.34375 l 1.632812 -1.671875 l 6.359376 6.34375 l 6.359374 -6.34375 z m 0 0" fill="#2d2d2d"/>
                <path d="m 43.121094 70 v 6.941406 h 6.949218 v 2.117188 h -6.949218 v 6.941406 h -2.097656 v -6.941406 h -6.953126 v -2.117188 h 6.953126 v -6.941406 z m 0 0" fill="#2d2d2d"/>
                <path d="m 76 53 h 16 v 3.488281 h -16 z m 0 8.46875 h 16 v 3.53125 h -16 z m 0 0" fill="#f0f0f2"/>
            </g>
        </g>
    </mask>
    <mask id="e">
        <g filter="url(#c)">
            <rect fill-opacity="0.8" height="128" width="128"/>
        </g>
    </mask>
    <linearGradient id="f" gradientTransform="matrix(0 0.37 -0.98462 0 295.38501 -30.360001)" gradientUnits="userSpaceOnUse" x1="300" x2="428" y1="235" y2="235">
        <stop offset="0" stop-color="#f9f06b"/>
        <stop offset="1" stop-color="#f5c211"/>
    </linearGradient>
    <clipPath id="g">
        <rect height="128" width="128"/>
    </clipPath>
    <clipPath id="h">
        <rect height="128" width="128"/>
    </clipPath>
    <path d="m 20 16 h 88 c 4.417969 0 8 3.582031 8 8 v 84 c 0 4.417969 -3.582031 8 -8 8 h -88 c -4.417969 0 -8 -3.582031 -8 -8 v -84 c 0 -4.417969 3.582031 -8 8 -8 z m 0 0" fill="#cdcdd4"/>
    <path d="m 20 12 h 88 c 4.417969 0 8 3.582031 8 8 v 84 c 0 4.417969 -3.582031 8 -8 8 h -88 c -4.417969 0 -8 -3.582031 -8 -8 v -84 c 0 -4.417969 3.582031 -8 8 -8 z m 0 0" fill="#f0f0f2"/>
    <path d="m 58 44 c 0 8.835938 -7.164062 16 -16 16 s -16 -7.164062 -16 -16 s 7.164062 -16 16 -16 s 16 7.164062 16 16 z m 0 0" fill="#cdcdd4"/>
    <path d="m 58 40 c 0 8.835938 -7.164062 16 -16 16 s -16 -7.164062 -16 -16 s 7.164062 -16 16 -16 s 16 7.164062 16 16 z m 0 0" fill="#e3e3e7"/>
    <path d="m 58.070312 82 c 0 8.835938 -7.164062 16 -16 16 c -8.835937 0 -16 -7.164062 -16 -16 s 7.164063 -16 16 -16 c 8.835938 0 16 7.164062 16 16 z m 0 0" fill="#cdcdd4"/>
    <path d="m 58.070312 78 c 0 8.835938 -7.164062 16 -16 16 c -8.835937 0 -16 -7.164062 -16 -16 s 7.164063 -16 16 -16 c 8.835938 0 16 7.164062 16 16 z m 0 0" fill="#e3e3e7"/>
    <path d="m 72 28 h 24 c 3.3125 0 6 2.6875 6 6 v 58 c 0 3.3125 -2.6875 6 -6 6 h -24 c -3.3125 0 -6 -2.6875 -6 -6 v -58 c 0 -3.3125 2.6875 -6 6 -6 z m 0 0" fill="#723ea4"/>
    <path d="m 72 24 h 24 c 3.3125 0 6 2.6875 6 6 v 58 c 0 3.3125 -2.6875 6 -6 6 h -24 c -3.3125 0 -6 -2.6875 -6 -6 v -58 c 0 -3.3125 2.6875 -6 6 -6 z m 0 0" fill="#8c56bf"/>
    <path d="m 50 33.671875 l -6.332031 6.34375 l 6.332031 6.3125 l -1.648438 1.671875 l -6.359374 -6.34375 l -6.359376 6.34375 l -1.632812 -1.671875 l 6.316406 -6.3125 l -6.316406 -6.34375 l 1.632812 -1.671875 l 6.359376 6.34375 l 6.359374 -6.34375 z m 0 0" fill="#2d2d2d"/>
    <path d="m 43.121094 70 v 6.941406 h 6.949218 v 2.117188 h -6.949218 v 6.941406 h -2.097656 v -6.941406 h -6.953126 v -2.117188 h 6.953126 v -6.941406 z m 0 0" fill="#2d2d2d"/>
    <path d="m 76 53 h 16 v 3.488281 h -16 z m 0 8.46875 h 16 v 3.53125 h -16 z m 0 0" fill="#f0f0f2"/>
    <g clip-path="url(#h)" mask="url(#d)">
        <g clip-path="url(#g)" mask="url(#e)">
            <path d="m 128 80.640625 v 47.359375 h -128 v -47.359375 z m 0 0" fill="url(#f)"/>
            <path d="m 13.308594 80.640625 l 47.355468 47.359375 h 21.214844 l -47.359375 -47.359375 z m 42.421875 0 l 47.363281 47.359375 h 21.214844 l -47.363282 -47.359375 z m 42.429687 0 l 29.839844 29.839844 v -21.210938 l -8.628906 -8.628906 z m -98.160156 7.90625 v 21.214844 l 18.238281 18.238281 h 21.214844 z m 0 0"/>
        </g>
    </g>
</svg>
