<svg width="128" height="128" viewBox="0 0 128 128" fill="none" xmlns="http://www.w3.org/2000/svg">
<g filter="url(#filter0_i_723_2)">
<rect x="12" y="12" width="104" height="104" rx="24" fill="#8C56BF"/>
<rect x="12" y="12" width="104" height="104" rx="24" fill="url(#paint0_linear_723_2)"/>
</g>
<g filter="url(#filter1_ii_723_2)">
<path d="M12 64H64V116H49.92C36.9314 116 30.4371 116 25.4415 113.553C20.6583 111.209 16.7906 107.342 14.4473 102.559C12 97.5629 12 91.0686 12 78.08V64Z" fill="#F0F0F2" fill-opacity="0.5"/>
<path d="M12 64H64V116H49.92C36.9314 116 30.4371 116 25.4415 113.553C20.6583 111.209 16.7906 107.342 14.4473 102.559C12 97.5629 12 91.0686 12 78.08V64Z" fill="url(#paint1_linear_723_2)"/>
</g>
<g filter="url(#filter2_i_723_2)">
<path d="M64 12H78.08C91.0686 12 97.5629 12 102.559 14.4473C107.342 16.7906 111.209 20.6583 113.553 25.4415C116 30.4371 116 36.9314 116 49.92V64H64V12Z" fill="#F0F0F2" fill-opacity="0.5"/>
<path d="M64 12H78.08C91.0686 12 97.5629 12 102.559 14.4473C107.342 16.7906 111.209 20.6583 113.553 25.4415C116 30.4371 116 36.9314 116 49.92V64H64V12Z" fill="url(#paint2_linear_723_2)"/>
</g>
<path d="M94.16 48.44L89.26 43.54L84.36 48.44L81.4 45.46L86.28 40.56L81.42 35.7L84.4 32.74L89.26 37.6L94.12 32.74L97.1 35.7L92.22 40.56L97.12 45.46L94.16 48.44Z" fill="#F0F0F2"/>
<path d="M86.32 97.6V90.68H79.4V86.48H86.32V79.6H90.52V86.48H97.4V90.68H90.52V97.6H86.32Z" fill="#F0F0F2"/>
<path d="M30.8 86.8V82.6H51.2V86.8H30.8ZM30.8 94.6V90.4H51.2V94.6H30.8Z" fill="#F0F0F2"/>
<path d="M34.4 44.48V40.28H46.4V44.48H34.4Z" fill="white"/>
<defs>
<filter id="filter0_i_723_2" x="12" y="12" width="104" height="104" filterUnits="userSpaceOnUse" color-interpolation-filters="sRGB">
<feFlood flood-opacity="0" result="BackgroundImageFix"/>
<feBlend mode="normal" in="SourceGraphic" in2="BackgroundImageFix" result="shape"/>
<feColorMatrix in="SourceAlpha" type="matrix" values="0 0 0 0 0 0 0 0 0 0 0 0 0 0 0 0 0 0 127 0" result="hardAlpha"/>
<feOffset dy="-4"/>
<feComposite in2="hardAlpha" operator="arithmetic" k2="-1" k3="1"/>
<feColorMatrix type="matrix" values="0 0 0 0 0.176471 0 0 0 0 0.176471 0 0 0 0 0.176471 0 0 0 0.1 0"/>
<feBlend mode="normal" in2="shape" result="effect1_innerShadow_723_2"/>
</filter>
<filter id="filter1_ii_723_2" x="12" y="64" width="52" height="52" filterUnits="userSpaceOnUse" color-interpolation-filters="sRGB">
<feFlood flood-opacity="0" result="BackgroundImageFix"/>
<feBlend mode="normal" in="SourceGraphic" in2="BackgroundImageFix" result="shape"/>
<feColorMatrix in="SourceAlpha" type="matrix" values="0 0 0 0 0 0 0 0 0 0 0 0 0 0 0 0 0 0 127 0" result="hardAlpha"/>
<feOffset dy="-4"/>
<feComposite in2="hardAlpha" operator="arithmetic" k2="-1" k3="1"/>
<feColorMatrix type="matrix" values="0 0 0 0 0.176471 0 0 0 0 0.176471 0 0 0 0 0.176471 0 0 0 0.1 0"/>
<feBlend mode="normal" in2="shape" result="effect1_innerShadow_723_2"/>
<feColorMatrix in="SourceAlpha" type="matrix" values="0 0 0 0 0 0 0 0 0 0 0 0 0 0 0 0 0 0 127 0" result="hardAlpha"/>
<feMorphology radius="2" operator="erode" in="SourceAlpha" result="effect2_innerShadow_723_2"/>
<feOffset/>
<feComposite in2="hardAlpha" operator="arithmetic" k2="-1" k3="1"/>
<feColorMatrix type="matrix" values="0 0 0 0 0 0 0 0 0 0 0 0 0 0 0 0 0 0 0.1 0"/>
<feBlend mode="normal" in2="effect1_innerShadow_723_2" result="effect2_innerShadow_723_2"/>
</filter>
<filter id="filter2_i_723_2" x="64" y="12" width="52" height="52" filterUnits="userSpaceOnUse" color-interpolation-filters="sRGB">
<feFlood flood-opacity="0" result="BackgroundImageFix"/>
<feBlend mode="normal" in="SourceGraphic" in2="BackgroundImageFix" result="shape"/>
<feColorMatrix in="SourceAlpha" type="matrix" values="0 0 0 0 0 0 0 0 0 0 0 0 0 0 0 0 0 0 127 0" result="hardAlpha"/>
<feMorphology radius="2" operator="erode" in="SourceAlpha" result="effect1_innerShadow_723_2"/>
<feOffset/>
<feComposite in2="hardAlpha" operator="arithmetic" k2="-1" k3="1"/>
<feColorMatrix type="matrix" values="0 0 0 0 0 0 0 0 0 0 0 0 0 0 0 0 0 0 0.1 0"/>
<feBlend mode="normal" in2="shape" result="effect1_innerShadow_723_2"/>
</filter>
<linearGradient id="paint0_linear_723_2" x1="64" y1="12" x2="64" y2="116" gradientUnits="userSpaceOnUse">
<stop stop-color="#2D2D2D" stop-opacity="0"/>
<stop offset="1" stop-color="#2D2D2D" stop-opacity="0.2"/>
</linearGradient>
<linearGradient id="paint1_linear_723_2" x1="38" y1="64" x2="38" y2="116" gradientUnits="userSpaceOnUse">
<stop stop-color="#2D2D2D" stop-opacity="0"/>
<stop offset="1" stop-color="#2D2D2D" stop-opacity="0.2"/>
</linearGradient>
<linearGradient id="paint2_linear_723_2" x1="90" y1="12" x2="90" y2="64" gradientUnits="userSpaceOnUse">
<stop stop-color="#2D2D2D" stop-opacity="0"/>
<stop offset="1" stop-color="#2D2D2D" stop-opacity="0.2"/>
</linearGradient>
</defs>
</svg>
